<?xml version="1.0" standalone="no"?>
<!DOCTYPE svg PUBLIC "-//W3C//DTD SVG 20010904//EN"
 "http://www.w3.org/TR/2001/REC-SVG-20010904/DTD/svg10.dtd">
<svg version="1.0" xmlns="http://www.w3.org/2000/svg"
 width="512.000000pt" height="512.000000pt" viewBox="0 0 512.000000 512.000000"
 preserveAspectRatio="xMidYMid meet">

<g transform="translate(0.000000,512.000000) scale(0.100000,-0.100000)"
fill="#000000" stroke="none">
<path d="M1945 5075 c-25 -24 -25 -27 -25 -195 l0 -170 -655 0 c-694 0 -702 0
-719 -45 -8 -22 -8 -648 0 -670 18 -47 -69 -45 2014 -45 2083 0 1996 -2 2014
45 8 22 8 648 0 670 -17 45 -25 45 -719 45 l-655 0 0 170 c0 168 0 171 -25
195 l-24 25 -591 0 -591 0 -24 -25z m1093 -252 l3 -113 -481 0 -480 0 0 108
c0 60 3 112 7 115 3 4 218 6 477 5 l471 -3 3 -112z m1382 -493 l0 -210 -1860
0 -1860 0 0 210 0 210 1860 0 1860 0 0 -210z"/>
<path d="M564 3785 l-24 -24 2 -1528 3 -1528 31 -92 c79 -231 227 -401 439
-503 190 -92 65 -85 1545 -85 1480 0 1355 -7 1545 85 212 102 356 267 437 500
l33 95 3 1528 2 1528 -24 24 -25 25 -1971 0 -1971 0 -25 -25z m3854 -1587 l-3
-1453 -27 -80 c-72 -211 -236 -378 -435 -444 -120 -40 -197 -42 -1458 -39
-1348 4 -1257 0 -1410 74 -189 92 -326 270 -369 477 -14 67 -16 240 -16 1497
l0 1420 1860 0 1860 0 -2 -1452z"/>
<path d="M1795 3255 l-25 -24 0 -1261 0 -1262 29 -29 c36 -36 70 -37 108 -5
l28 24 3 1239 c1 681 0 1253 -3 1271 -13 71 -90 97 -140 47z"/>
<path d="M2502 3257 l-22 -23 0 -1265 c0 -1388 -4 -1300 59 -1314 33 -7 85 15
95 40 3 9 6 585 6 1279 l0 1263 -23 21 c-32 30 -87 29 -115 -1z"/>
<path d="M3211 3261 c-11 -11 -23 -35 -26 -53 -3 -18 -4 -590 -3 -1271 l3
-1239 28 -24 c38 -32 72 -31 108 5 l29 30 -2 1266 -3 1267 -24 19 c-30 25 -85
25 -110 0z"/>
</g>
</svg>
